# xmcd
#
# Track frame offsets:
#	150
#	17762
#	36450
#	56200
#	75445
#	95120
#	113670
#	128202
#	142845
#	158617
#	176322
#	191200
#	206190
#	224562
#	240687
#	252970
#
# Disc length: 3644 seconds
#
# Revision: 2
# Processed by: cddbd v1.5.2PL0 Copyright (c) Steve Scherf et al.
# Submitted via: EasyCDDAExtractor 15.3.0.1
#
DISCID=e60e3a10
DTITLE=Alejandro Fernandez - 15 Años De Exitos
DYEAR=2007
DGENRE=Latin
TTITLE0=Me Dedique A Perderte
TTITLE1=Que Voy A Hacer Con Mi Amor
TTITLE2=Que Lastima
TTITLE3=Canta Corazon
TTITLE4=No Se Olvidar
TTITLE5=Si Tu Supieras
TTITLE6=Niña Amada Mia
TTITLE7=Si Tu No Vuelves
TTITLE8=Tantita Pena
TTITLE9=Si He Sabido Amor
TTITLE10=Loco
TTITLE11=Abrazame
TTITLE12=Nube Viajera
TTITLE13=Como Quien Pierde Una Estrella
TTITLE14=Piel De Niña
TTITLE15=El Lado Oscuro Del Amor (Bonus Track)
EXTD=YEAR: 2007
EXTT0=
EXTT1=
EXTT2=
EXTT3=
EXTT4=
EXTT5=
EXTT6=
EXTT7=
EXTT8=
EXTT9=
EXTT10=
EXTT11=
EXTT12=
EXTT13=
EXTT14=
EXTT15=
PLAYORDER=
